<?xml version="1.0" encoding="UTF-8"?>
<svg version="1.1" xmlns="http://www.w3.org/2000/svg" width="200" height="200">
<path d="M0 0 C66 0 132 0 200 0 C200 66 200 132 200 200 C134 200 68 200 0 200 C0 134 0 68 0 0 Z " fill="#EB583E" transform="translate(0,0)"/>
<path d="M0 0 C0.86602341 0.00359528 1.73204681 0.00719055 2.62431335 0.01089478 C3.98515549 0.01067574 3.98515549 0.01067574 5.37348938 0.01045227 C8.38737843 0.01115176 11.40120651 0.01894582 14.41508484 0.02676392 C16.49873826 0.02862797 18.58239212 0.03005193 20.66604614 0.03105164 C26.16191305 0.03487783 31.65775372 0.04470897 37.15361023 0.05575562 C43.74147245 0.06776164 50.32934342 0.07237149 56.91721344 0.07820892 C66.93605343 0.08792067 76.95483579 0.10707653 86.97367859 0.12442017 C86.97367859 25.20442017 86.97367859 50.28442017 86.97367859 76.12442017 C73.77367859 76.12442017 60.57367859 76.12442017 46.97367859 76.12442017 C46.97367859 87.67442017 46.97367859 99.22442017 46.97367859 111.12442017 C42.764006 109.44055113 39.46068954 107.59192827 35.78617859 105.06192017 C30.71865723 101.62350334 25.62407745 98.2311945 20.48930359 94.89395142 C19.91939194 94.52322006 19.34948029 94.15248871 18.76229858 93.77052307 C16.4541852 92.26954843 14.14582946 90.76897732 11.83442688 89.27307129 C10.19301868 88.2104056 8.55402728 87.14400985 6.91508484 86.07754517 C5.4872467 85.15183716 5.4872467 85.15183716 4.03056335 84.20742798 C3.02179138 83.5200354 2.01301941 82.83264282 0.97367859 82.12442017 C0.27367233 81.79919876 -0.42633392 81.47397736 -1.14755249 81.13890076 C-3.77791114 79.70148337 -5.25528844 78.56353595 -7.02632141 76.12442017 C-8.17902306 70.47365734 -7.98259961 64.9104003 -7.84272766 59.16738892 C-7.8303346 57.49686295 -7.82134637 55.82630856 -7.81561279 54.15574646 C-7.79080813 49.77072764 -7.71710963 45.3878163 -7.63392639 41.00357056 C-7.57376036 37.41314833 -7.54740565 33.82285311 -7.52295017 30.23203564 C-7.47240579 22.83017833 -7.40001435 15.42835493 -7.26679993 8.02749634 C-7.2448909 6.71544724 -7.22298187 5.40339813 -7.20040894 4.05158997 C-6.89218093 -1.13106582 -4.63655286 0.00813085 0 0 Z " fill="#FEFEFE" transform="translate(60.02632141113281,43.875579833984375)"/>
<path d="M0 0 C15.84 0 31.68 0 48 0 C48 11.55 48 23.1 48 35 C43.79026193 33.31610477 40.48718262 31.46733784 36.8125 28.9375 C35.50223956 28.04939658 34.19095369 27.16280501 32.87890625 26.27734375 C32.13012207 25.77187012 31.38133789 25.26639648 30.60986328 24.74560547 C25.18663455 21.11828223 19.71426892 17.56506733 14.25 14 C11.98428036 12.52097824 9.71870747 11.04173187 7.453125 9.5625 C6.47504883 8.92441406 5.49697266 8.28632813 4.48925781 7.62890625 C2.6538529 6.42786451 0.82505873 5.21670582 -1 4 C-0.67 2.68 -0.34 1.36 0 0 Z " fill="#DCDAD9" transform="translate(59,120)"/>
</svg>
